<svg width="70" height="70" viewBox="0 0 70 70" fill="none" xmlns="http://www.w3.org/2000/svg">
<path fill-rule="evenodd" clip-rule="evenodd" d="M42.4479 43.2844C42.6127 43.6707 42.9764 43.9325 43.3918 43.9636C43.4197 43.9658 43.4474 43.9668 43.4752 43.9668C43.8598 43.9668 44.2202 43.7665 44.4251 43.433L47.1342 39.0247L52.1675 40.0655C52.5761 40.1496 52.9964 39.9982 53.2593 39.672C53.5222 39.3459 53.5837 38.899 53.419 38.5128L49.6809 29.7489C49.7952 29.6999 49.9122 29.6495 50.0355 29.5963C51.9632 28.7628 53.091 26.79 52.8422 24.6875C52.7959 24.297 52.7527 23.9495 52.714 23.6376C52.5587 22.3864 52.4806 21.7584 52.5645 21.2785C52.6483 20.7987 52.9343 20.2354 53.5041 19.1134C53.6463 18.8335 53.8045 18.522 53.9802 18.1709C54.9263 16.2811 54.5345 14.0378 53.0054 12.5889C52.7216 12.3198 52.4672 12.0817 52.2391 11.8677C51.3235 11.0102 50.8639 10.5797 50.6228 10.1577C50.3814 9.73572 50.2421 9.11868 49.9644 7.8894C49.895 7.58286 49.8179 7.24131 49.729 6.85827C49.2507 4.79658 47.5226 3.33245 45.4289 3.21488C45.04 3.19301 44.6937 3.17565 44.3827 3.15998C43.1354 3.09732 42.5094 3.06585 42.056 2.89917C41.6026 2.73249 41.1031 2.35029 40.1076 1.58873C39.8595 1.39877 39.5829 1.18735 39.2712 0.951652C37.5924 -0.317147 35.3368 -0.317288 33.6579 0.951652C33.3462 1.18735 33.0696 1.39877 32.8215 1.58873C31.8261 2.35029 31.3265 2.73249 30.8731 2.89917C30.4197 3.06585 29.7936 3.09732 28.5464 3.15998C28.2353 3.17565 27.8891 3.19301 27.5002 3.21488C25.4065 3.33245 23.6783 4.79672 23.2001 6.85827C23.1112 7.24131 23.0341 7.58271 22.9648 7.8894C22.687 9.11868 22.5477 9.73586 22.3063 10.1577C22.0651 10.5797 21.6055 11.0102 20.69 11.8677C20.4618 12.0817 20.2076 12.3198 19.9237 12.5889C18.3948 14.0379 18.0029 16.2813 18.9488 18.171C19.1245 18.5219 19.2827 18.8334 19.4247 19.1131C19.9945 20.2353 20.2807 20.7985 20.3645 21.2784C20.4484 21.7581 20.3702 22.3862 20.215 23.6372C20.1762 23.9492 20.1331 24.2968 20.0868 24.6875C19.838 26.79 20.9658 28.7628 22.8935 29.5963C23.2516 29.7511 23.5711 29.8872 23.858 30.0093C23.9452 30.0464 24.028 30.0817 24.1088 30.1161L19.5234 40.061C19.3476 40.4423 19.3963 40.8906 19.6496 41.2245C19.903 41.5583 20.3191 41.7227 20.7296 41.6498L25.791 40.7568L28.3724 45.2425C28.5732 45.5912 28.942 45.8042 29.339 45.8042C29.3558 45.8042 29.3729 45.8038 29.3898 45.8031C29.806 45.784 30.1771 45.5329 30.3529 45.1517L34.9162 35.2541C35.6483 35.032 36.0921 34.92 36.4648 34.92C36.9473 34.92 37.5464 35.1066 38.7397 35.4785C38.8778 35.5215 39.024 35.5671 39.1773 35.6146L42.4479 43.2844ZM46.8193 36.6544C46.3606 36.5597 45.8918 36.7635 45.6448 37.1652L43.6544 40.4042L41.7541 35.9488C43.0584 35.766 44.2522 35.028 45.0153 33.8495C45.2285 33.5203 45.4166 33.2261 45.5856 32.9619C46.263 31.9026 46.6029 31.3709 46.9726 31.0576C47.1385 30.917 47.3469 30.79 47.6295 30.6485L50.5174 37.4191L46.8193 36.6544ZM29.2288 42.2376L27.3322 38.9418C27.0969 38.5329 26.6342 38.3157 26.173 38.3969L22.4543 39.0529L26.0852 31.1781C26.4096 31.5036 26.7448 32.0272 27.3426 32.9621C27.5116 33.2263 27.6997 33.5204 27.9128 33.8495C28.8563 35.3065 30.457 36.0913 32.1119 35.9843L29.2288 42.2376ZM36.464 32.6608C35.7031 32.6608 34.9419 32.8808 33.5297 33.3208C33.2358 33.4124 32.9087 33.5143 32.5406 33.6267C31.476 33.9513 30.3936 33.5541 29.7843 32.6136C29.5737 32.2886 29.388 31.998 29.2212 31.7372C27.6176 29.2298 27.4496 29.0875 24.7257 27.9284C24.4424 27.8078 24.1268 27.6735 23.7732 27.5205C22.7502 27.078 22.1745 26.0712 22.3066 24.9554C22.3523 24.5697 22.3949 24.2263 22.4332 23.9182C22.801 20.9569 22.7628 20.7387 21.4139 18.0826C21.2736 17.8062 21.1174 17.4987 20.944 17.1522C20.4419 16.1493 20.642 15.0044 21.4534 14.2354C21.734 13.9696 21.985 13.7345 22.2104 13.5232C24.3775 11.4933 24.4871 11.3015 25.1446 8.3917C25.2129 8.08882 25.2891 7.75165 25.3769 7.37327C25.6306 6.2792 26.5126 5.53189 27.6238 5.46951C28.0079 5.44791 28.3499 5.4307 28.6571 5.41531C31.6093 5.26684 31.8156 5.19105 34.1715 3.38862C34.4167 3.20105 34.6896 2.99217 34.9976 2.75944C35.8886 2.08609 37.0397 2.08609 37.9307 2.75944C38.2386 2.99217 38.5116 3.20105 38.7568 3.38862C41.1127 5.19105 41.319 5.26684 44.2712 5.41531C44.5782 5.4307 44.9204 5.44791 45.3045 5.46951C46.4156 5.53189 47.2976 6.2792 47.5514 7.37327C47.6392 7.75151 47.7153 8.08868 47.7837 8.39156C48.4412 11.3013 48.5507 11.4933 50.7178 13.5231C50.9433 13.7343 51.1943 13.9695 51.4748 14.2352C52.2863 15.0043 52.4861 16.1492 51.9841 17.1521C51.8107 17.4987 51.6544 17.8065 51.514 18.0828C50.1653 20.7387 50.1272 20.9569 50.4951 23.9185C50.5332 24.2266 50.576 24.5697 50.6215 24.9552C50.7536 26.071 50.1779 27.078 49.155 27.5204C48.8013 27.6732 48.4857 27.8076 48.2024 27.9282C45.4786 29.0874 45.3106 29.2298 43.7071 31.737C43.5403 31.998 43.3546 32.2884 43.1439 32.6136C42.535 33.554 41.4534 33.9519 40.3877 33.6267C40.0196 33.5143 39.6924 33.4123 39.3986 33.3208C37.9861 32.8808 37.2249 32.6608 36.464 32.6608ZM47.5612 17.9966C47.5612 11.8177 42.5831 6.79095 36.464 6.79095C30.3451 6.79095 25.367 11.8177 25.367 17.9966C25.367 24.1755 30.3451 29.2024 36.464 29.2024C42.5829 29.2024 47.5612 24.1756 47.5612 17.9966ZM36.4639 26.9442C31.578 26.9442 27.6031 22.9304 27.6031 17.9966C27.6031 13.063 31.578 9.0491 36.4639 9.0491C41.3497 9.0491 45.3247 13.063 45.3247 17.9966C45.3249 22.9304 41.3497 26.9442 36.4639 26.9442ZM42.605 15.3344L34.9696 22.3314C34.756 22.5272 34.487 22.6244 34.2183 22.6244C33.9315 22.6244 33.6453 22.5136 33.4275 22.2937L30.2839 19.1193C29.8472 18.6784 29.8472 17.9636 30.2839 17.5227C30.7206 17.0818 31.4284 17.0818 31.8652 17.5227L34.2557 19.9365L41.1022 13.6624C41.5594 13.2435 42.2666 13.2779 42.6816 13.7397C43.0966 14.2012 43.0623 14.9154 42.605 15.3344ZM63.8323 52.328C65.3062 50.84 66.0546 48.9628 65.9969 46.8993L65.4524 27.4886C65.3987 25.5719 63.5115 23.8544 61.4767 23.8544C61.4571 23.8544 61.4377 23.8545 61.4182 23.8548C60.4255 23.8709 57.1886 24.4109 57.212 30.6847L57.2519 41.2287C57.2528 41.4698 57.2378 41.7039 57.2067 41.9322C57.1279 41.837 57.0435 41.744 56.9535 41.6531C55.5734 40.2597 53.3133 40.2421 51.808 41.6129C51.7706 41.6469 51.7354 41.6835 51.7029 41.7223C50.0186 43.7332 47.949 45.4945 46.2859 46.9097C45.7027 47.4061 45.152 47.8748 44.6997 48.2863C42.8032 50.0124 42.5501 52.3907 42.5526 54.4893L42.5615 61.9985L41.5973 61.9902C40.9444 61.9841 40.3292 62.2366 39.8623 62.6998C39.3955 63.1632 39.1353 63.781 39.1297 64.4394L39.1046 67.3767C39.0991 68.0351 39.3487 68.6574 39.8075 69.1288C40.2663 69.6002 40.8782 69.8628 41.5302 69.8685L56.6414 69.9996C56.6485 69.9996 56.6556 69.9997 56.6628 69.9997C57.3068 69.9997 57.9147 69.7481 58.3763 69.2898C58.8431 68.8265 59.1032 68.2087 59.1088 67.5503L59.1339 64.613C59.1394 63.9546 58.8898 63.3324 58.431 62.861C57.9722 62.3896 57.3603 62.1269 56.7083 62.1213L55.4651 62.1106V60.777L63.8323 52.328ZM56.8976 64.5937L56.8725 67.531C56.872 67.6018 56.8375 67.651 56.8085 67.6796C56.7797 67.7084 56.7347 67.742 56.6604 67.7417L41.5492 67.6106C41.4792 67.61 41.4305 67.5752 41.4022 67.546C41.3738 67.5167 41.3401 67.4672 41.3408 67.3963L41.3658 64.4591C41.3664 64.3882 41.4009 64.3391 41.4298 64.3104C41.4583 64.2821 41.507 64.2483 41.5759 64.2483H41.5778H41.578L56.6892 64.3795C56.8032 64.3806 56.8987 64.4785 56.8976 64.5937ZM44.7978 62.0181L44.7889 54.4868C44.7861 52.187 45.1941 50.8767 46.197 49.9638C46.6215 49.5774 47.1338 49.1414 47.7269 48.6368C49.4366 47.1817 51.5604 45.3744 53.3551 43.2465C53.9828 42.7149 54.8398 42.7125 55.3721 43.2501C55.9387 43.8221 55.9394 44.5026 55.3769 45.273C54.4878 46.2821 53.553 47.1962 52.5639 48.1627C52.0891 48.6267 51.598 49.1066 51.1026 49.6069C50.666 50.0478 50.666 50.7627 51.1028 51.2036C51.3211 51.424 51.6071 51.5342 51.8933 51.5342C52.1795 51.5342 52.4658 51.424 52.684 51.2034C53.1663 50.7164 53.6506 50.243 54.1191 49.7853C55.1526 48.7755 56.1286 47.8217 57.0847 46.7324C57.0897 46.7266 57.8336 45.8079 57.8336 45.8079C58.9533 44.416 59.4945 42.9153 59.4882 41.2204L59.4483 30.6763C59.4378 27.8817 60.2064 26.133 61.454 26.1128C61.4617 26.1127 61.4691 26.1127 61.4767 26.1127C62.307 26.1127 63.1972 26.8459 63.2169 27.5527L63.7614 46.9633C63.802 48.4108 63.2938 49.6786 62.251 50.7313L53.5563 59.511C53.3466 59.7227 53.2288 60.0099 53.2288 60.3093V62.0912L44.7978 62.0181ZM42.4415 65.6073C42.6258 65.1389 43.1515 64.9101 43.6154 65.0964C44.0793 65.2826 44.3058 65.8134 44.1215 66.2818C43.937 66.7502 43.4115 66.979 42.9476 66.7927C42.4835 66.6064 42.257 66.0758 42.4415 65.6073ZM30.1375 62.7001C29.6707 62.2366 29.054 61.9854 28.4024 61.9905L27.4383 61.9988L27.4473 54.4896C27.4498 52.3908 27.1967 50.0125 25.3001 48.2866C24.8481 47.8749 24.2972 47.4063 23.7141 46.9101C22.0511 45.4948 19.9814 43.7335 18.2971 41.7226C18.2646 41.6838 18.2296 41.6472 18.1921 41.6132C16.6861 40.2424 14.4259 40.2601 13.0465 41.6534C12.9564 41.7443 12.8721 41.8373 12.7933 41.9324C12.7621 41.7042 12.7471 41.4702 12.7481 41.2292L12.788 30.6849C12.8114 24.411 9.57455 23.8712 8.58177 23.855C8.5622 23.8547 8.54306 23.8545 8.52335 23.8545C6.48846 23.8545 4.60117 25.5721 4.54764 27.4887L4.0031 46.8995C3.94538 48.9631 4.69384 50.8401 6.16755 52.3281L14.5348 60.7773V62.1109L13.2915 62.1216C12.6395 62.1272 12.0276 62.3899 11.5689 62.8613C11.11 63.3327 10.8604 63.9549 10.866 64.6133L10.891 67.5506C10.8966 68.209 11.1567 68.8267 11.6235 69.2901C12.0852 69.7484 12.6929 70 13.3371 70C13.3442 70 13.3515 70 13.3585 69.9999L28.4697 69.8687C29.1217 69.8631 29.7336 69.6004 30.1923 69.1291C30.6512 68.6577 30.9008 68.0354 30.8952 67.377L30.8702 64.4397C30.8647 63.7813 30.6044 63.1634 30.1375 62.7001ZM16.7711 60.3093C16.7711 60.0098 16.6532 59.7227 16.4436 59.511L7.74875 50.7312C6.70608 49.6785 6.19788 48.4108 6.23842 46.9633L6.78295 27.5525C6.80294 26.8392 7.71493 26.1005 8.54585 26.1128C9.79342 26.133 10.562 27.8817 10.5515 30.6761L10.5117 41.2204C10.5054 42.9153 11.0466 44.4158 12.1682 45.8103L12.8861 46.6977C12.891 46.7038 12.9103 46.7266 12.9153 46.7324C13.8714 47.8217 14.8474 48.7755 15.8809 49.7853C16.3494 50.2431 16.8336 50.7164 17.316 51.2034C17.5343 51.4239 17.8205 51.5342 18.1067 51.5342C18.3928 51.5342 18.679 51.424 18.8972 51.2036C19.334 50.7627 19.334 50.0478 18.8974 49.6069C18.402 49.1067 17.9109 48.6267 17.4361 48.1627C16.447 47.1961 15.5122 46.2821 14.6231 45.273C14.0607 44.5028 14.0612 43.8222 14.6279 43.2502C15.1605 42.7125 16.0172 42.7149 16.645 43.2465C18.4396 45.3746 20.5633 47.1818 22.2732 48.6369C22.8662 49.1417 23.3785 49.5776 23.8031 49.9641C24.8059 50.8767 25.2139 52.1871 25.2111 54.4869L25.2022 62.0183L16.7712 62.0914L16.7711 60.3093ZM28.5976 67.5461C28.5692 67.5753 28.5206 67.6102 28.4505 67.6107L13.3393 67.7418C13.2679 67.742 13.22 67.7085 13.1912 67.6797C13.1623 67.6511 13.1277 67.6021 13.1272 67.5311L13.1022 64.5938C13.1015 64.523 13.1351 64.4733 13.1635 64.4442C13.1919 64.4152 13.2405 64.3802 13.3106 64.3796L28.4216 64.2485H28.4237C28.4927 64.2485 28.5414 64.2822 28.5699 64.3106C28.5988 64.3392 28.6333 64.3884 28.6339 64.4592L28.6589 67.3965C28.6596 67.4673 28.6259 67.5169 28.5976 67.5461ZM27.5584 65.6073C27.7429 66.0758 27.5163 66.6064 27.0524 66.7927C26.5885 66.979 26.0629 66.7502 25.8785 66.2818C25.694 65.8134 25.9206 65.2827 26.3845 65.0964C26.8484 64.9101 27.3739 65.1389 27.5584 65.6073Z" fill="#800000"/>
</svg>
