<svg width="70" height="70" viewBox="0 0 70 70" fill="none" xmlns="http://www.w3.org/2000/svg">
<g clip-path="url(#clip0_60_245)">
<path d="M68.0943 46.4666L64.4355 45.5516C64.1295 44.5415 63.7233 43.5638 63.2231 42.6346L65.1648 39.399C65.4405 38.9398 65.3681 38.3519 64.9898 37.973L61.3481 34.3267C60.9692 33.9478 60.3812 33.876 59.922 34.1518L56.6865 36.0934C56.2666 35.8684 55.8347 35.6604 55.3949 35.4713C54.8616 35.2451 54.3164 35.048 53.7615 34.881L52.8465 31.2216C52.7171 30.702 52.2505 30.3374 51.715 30.3374H46.568C46.0324 30.3374 45.5658 30.702 45.4359 31.2216L44.5215 34.881C43.5107 35.187 42.5336 35.5932 41.6044 36.0934L38.3689 34.1518C37.9097 33.876 37.3217 33.9478 36.9428 34.3267L33.2965 37.9684C32.9176 38.3473 32.8458 38.9353 33.1216 39.3945L35.0632 42.63C34.5624 43.5593 34.1568 44.5364 33.8508 45.5471L30.1914 46.4615C29.6718 46.5914 29.3072 47.058 29.3072 47.5936V52.744C29.3072 53.2796 29.6718 53.7462 30.1914 53.8755L33.8508 54.7905C34.1568 55.8006 34.5624 56.7777 35.0632 57.7076L33.1216 60.9431C32.8458 61.4023 32.9176 61.9903 33.2965 62.3691L36.9383 66.0109C37.3171 66.3892 37.9051 66.4616 38.3637 66.1858L41.5993 64.2442C42.5291 64.7444 43.5062 65.1506 44.5163 65.4566L45.4313 69.1154C45.5612 69.635 46.0278 69.9996 46.5634 70.0002H51.7138C52.2494 69.9996 52.716 69.635 52.8453 69.1154L53.7603 65.4566C54.7705 65.1506 55.7476 64.7444 56.6774 64.2442L59.9129 66.1858C60.3721 66.4616 60.9601 66.3892 61.339 66.0109L64.9802 62.3691C65.359 61.9903 65.4314 61.4023 65.1556 60.9431L63.214 57.7076C63.7142 56.7777 64.1204 55.8006 64.4264 54.7905L68.0852 53.8755C68.6048 53.7462 68.9695 53.2796 68.9695 52.744V47.5981C68.9706 47.0654 68.6105 46.5994 68.0943 46.4666ZM66.6455 51.837L63.2117 52.6961C62.7941 52.7998 62.4682 53.124 62.3622 53.5411C62.0409 54.8053 61.5389 56.0166 60.8706 57.1367C60.6507 57.5059 60.6507 57.9656 60.8706 58.3343L62.6932 61.3681L60.3448 63.7263L57.3109 61.9037C56.9423 61.6832 56.4825 61.6832 56.1139 61.9037C54.9932 62.5714 53.782 63.0739 52.5177 63.3947C52.1007 63.5006 51.7765 63.8271 51.6728 64.2442L50.8068 67.6757H47.479L46.6204 64.2419C46.5167 63.8248 46.1919 63.4984 45.7754 63.3924C44.5112 63.0711 43.2999 62.5691 42.1793 61.9008C41.8106 61.6809 41.3509 61.6809 40.9822 61.9008L37.9484 63.7234L35.5903 61.375L37.4128 58.3411C37.6333 57.9725 37.6333 57.5127 37.4128 57.1441C36.7451 56.0234 36.2426 54.8122 35.9218 53.5479C35.8159 53.1314 35.4894 52.8067 35.0724 52.703L31.6408 51.837V48.5097L35.0746 47.6506C35.4917 47.5469 35.8181 47.2227 35.9241 46.8056C36.2449 45.5414 36.7474 44.3301 37.4151 43.21C37.6356 42.8408 37.6356 42.3811 37.4151 42.0124L35.5925 38.9786L37.9416 36.6204L40.9754 38.443C41.344 38.6635 41.8038 38.6635 42.1724 38.443C43.2931 37.7753 44.5044 37.2728 45.7686 36.952C46.1851 36.8461 46.5098 36.5196 46.6135 36.1025L47.479 32.671H50.8068L51.666 36.1048C51.7697 36.5219 52.0938 36.8483 52.5103 36.9543C53.7746 37.2745 54.9858 37.7764 56.1054 38.4447C56.4745 38.6652 56.9349 38.6652 57.3041 38.4447L60.3374 36.6221L62.6955 38.9717L60.8729 42.0056C60.653 42.3742 60.653 42.834 60.8729 43.2026C61.5412 44.3233 62.0432 45.5345 62.3645 46.7988C62.4705 47.2153 62.7964 47.54 63.214 47.6437L66.6455 48.5097V51.837Z" fill="#800000"/>
<path d="M49.1432 40.8388C43.9876 40.8388 39.8086 45.0178 39.8086 50.1734C39.8086 55.3289 43.9876 59.5079 49.1432 59.5079C54.2981 59.5079 58.4777 55.3289 58.4777 50.1734C58.472 45.0206 54.2959 40.8445 49.1432 40.8388ZM49.1432 57.1743C45.2763 57.1743 42.1422 54.0396 42.1422 50.1734C42.1422 46.3071 45.2763 43.1724 49.1432 43.1724C53.0094 43.1724 56.1441 46.3071 56.1441 50.1734C56.1401 54.0385 53.0077 57.1703 49.1432 57.1743Z" fill="#800000"/>
<path d="M54.9773 14.0019H57.3109V32.671H54.9773V14.0019Z" fill="#800000"/>
<path d="M5.97074 59.5079V64.1752C5.97074 64.8196 6.49319 65.342 7.13756 65.342H31.6408V63.0084H8.30438V59.5079H22.3063C22.4869 59.5096 22.6652 59.4698 22.8276 59.3911L27.4949 57.0575C27.8908 56.8604 28.1415 56.4558 28.1415 56.0132C28.1415 55.571 27.8908 55.1665 27.4949 54.9688L22.8276 52.6352C22.6663 52.5526 22.4874 52.5087 22.3063 52.507H8.30438V12.835H52.6436C55.2211 12.835 57.3109 10.7452 57.3109 8.16776V5.83411C57.3109 5.18974 56.7885 4.66729 56.1441 4.66729H52.6436V7.00093H54.9773V8.16776C54.9773 9.4565 53.9324 10.5014 52.6436 10.5014C51.3549 10.5014 50.31 9.4565 50.31 8.16776V4.66729C50.31 3.37854 51.3549 2.33364 52.6436 2.33364H57.3109C58.5997 2.33364 59.6446 3.37854 59.6446 4.66729V31.5042H61.9782V4.66729C61.9782 2.0898 59.8884 0 57.3109 0H5.97074C3.39268 0 1.30345 2.0898 1.30345 4.66729V8.16776C1.30345 10.7452 3.39268 12.835 5.97074 12.835V52.507H4.80392C2.8708 52.507 1.30345 54.0743 1.30345 56.0075C1.30345 57.9406 2.8708 59.5079 4.80392 59.5079H5.97074ZM3.6371 8.16776V4.66729C3.6371 3.37854 4.68199 2.33364 5.97074 2.33364H48.6247C48.2048 3.04012 47.9809 3.84573 47.9763 4.66729V8.16776C47.9809 8.98932 48.2048 9.79493 48.6247 10.5014H5.97074C4.68199 10.5014 3.6371 9.4565 3.6371 8.16776ZM24.3641 56.0075L22.0305 57.1743H21.1394V54.8406H22.0305L24.3641 56.0075ZM3.6371 56.0075C3.6371 55.3631 4.15954 54.8406 4.80392 54.8406H18.8058V57.1743H4.80392C4.15954 57.1743 3.6371 56.6518 3.6371 56.0075Z" fill="#800000"/>
<path d="M1.30345 17.5023H3.6371V40.8388H1.30345V17.5023Z" fill="#800000"/>
<path d="M46.8095 18.6691V16.3355H31.6408C31.3315 16.3355 31.0346 16.4586 30.8158 16.6773L28.6839 18.8093C23.587 15.0735 16.5263 15.6188 12.0635 20.0929C11.6083 20.5481 11.6083 21.2871 12.0635 21.7423L20.3144 29.9932C20.5327 30.2126 20.8295 30.3368 21.1394 30.3374H32.8076C33.452 30.3374 33.9745 29.8149 33.9745 29.1705C33.9733 25.886 32.7085 22.728 30.441 20.3516L32.124 18.6691H46.8095ZM31.5753 28.0037H21.6226L14.584 20.9652C18.1711 18.0931 23.2121 17.8972 27.0117 20.4815L23.8149 23.6783L25.4649 25.3282L28.7973 21.9958C30.3492 23.6452 31.324 25.7533 31.5753 28.0037Z" fill="#800000"/>
<path d="M49.1432 16.3355H51.4768V18.6692H49.1432V16.3355Z" fill="#800000"/>
<path d="M14.1385 33.8378H16.4721V36.1715H14.1385V33.8378Z" fill="#800000"/>
<path d="M18.8058 33.8378H30.474V36.1715H18.8058V33.8378Z" fill="#800000"/>
<path d="M11.8049 38.5051H30.474V40.8388H11.8049V38.5051Z" fill="#800000"/>
<path d="M37.4749 21.0028H39.8086V23.3365H37.4749V21.0028Z" fill="#800000"/>
<path d="M42.1422 21.0028H51.4768V23.3365H42.1422V21.0028Z" fill="#800000"/>
<path d="M37.4749 25.6701H51.4768V28.0037H37.4749V25.6701Z" fill="#800000"/>
<path d="M11.8049 43.1724H26.9735V45.5061H11.8049V43.1724Z" fill="#800000"/>
</g>
<defs>
<clipPath id="clip0_60_245">
<rect width="70" height="70" fill="white"/>
</clipPath>
</defs>
</svg>
