<svg width="236" height="50" viewBox="0 0 236 50" fill="none" xmlns="http://www.w3.org/2000/svg">
<g clip-path="url(#clip0_60_164)">
<path d="M59.1892 7.79834H65.4784C71.3839 7.79834 75.5766 11.4245 75.5766 16.5577C75.5766 21.6908 71.3839 25.3429 65.4784 25.3429H59.1892V7.79834ZM65.964 21.9205C69.3132 21.9205 71.6908 19.6988 71.6908 16.5577C71.6908 13.4421 69.3132 11.2202 65.964 11.2202H62.9472V21.9205H65.964Z" fill="white"/>
<path d="M94.8002 21.6915L96.436 23.1219L94.5184 25.3436L92.7289 23.7857C91.1155 24.9999 89.1498 25.6545 87.1305 25.6499C82.0939 25.6499 77.7988 21.4877 77.7988 16.5584C77.7988 11.6291 82.0945 7.49219 87.1305 7.49219C92.218 7.49219 96.4613 11.6296 96.4613 16.5584C96.4553 18.4006 95.8746 20.195 94.8002 21.6915ZM89.9426 21.3852L87.8976 19.5976L89.8148 17.3759L91.9362 19.2144C92.3771 18.3989 92.6057 17.4856 92.6011 16.5586C92.6011 13.5197 90.0958 10.9148 87.1315 10.9148C84.1916 10.9148 81.6857 13.5197 81.6857 16.5586C81.6857 19.6235 84.1916 22.2283 87.1315 22.2283C88.1308 22.2268 89.1078 21.9335 89.9426 21.3844V21.3852Z" fill="white"/>
<path d="M109.805 25.3429L105.792 19.6479H103.005V25.3429H99.2468V7.79834H107.146C110.955 7.79834 113.768 10.2498 113.768 13.7231C113.768 16.328 112.182 18.3709 109.78 19.2135L114.1 25.3429H109.805ZM103.005 16.2002H106.737C108.605 16.2002 109.882 15.2298 109.882 13.7231C109.882 12.2164 108.604 11.2458 106.737 11.2458H103.005V16.2002Z" fill="white"/>
<path d="M123.864 7.79834H127.622L133.067 17.7071L138.487 7.79834H142.271V25.3429H138.487V14.4125L133.067 24.3213L127.622 14.4125V25.3429H123.864V7.79834Z" fill="white"/>
<path d="M155.051 21.1801L157.429 23.6062C156.253 24.8319 153.978 25.6492 152.035 25.6492C148.098 25.6492 145.03 22.7634 145.03 18.7028C145.03 14.7188 147.97 11.833 151.83 11.833C155.972 11.833 158.4 14.9744 158.4 19.9541H148.865C149.299 21.3845 150.45 22.3554 152.009 22.3554C153.13 22.3317 154.206 21.9157 155.051 21.1801ZM148.914 17.2727H154.82C154.462 15.9704 153.491 15.1276 151.982 15.1276C151.31 15.1172 150.652 15.3189 150.102 15.7041C149.551 16.0892 149.136 16.6381 148.916 17.2727H148.914Z" fill="white"/>
<path d="M174.531 7.4917V25.3431H170.798V23.4527C170.285 24.1459 169.613 24.7067 168.839 25.0887C168.066 25.4707 167.212 25.6628 166.35 25.6491C162.822 25.6491 160.266 22.7889 160.266 18.7284C160.266 14.6934 162.823 11.8329 166.35 11.8329C167.212 11.8194 168.066 12.0115 168.839 12.3935C169.613 12.7754 170.285 13.3362 170.798 14.0293V7.4925L174.531 7.4917ZM170.798 18.7286C170.798 16.5325 169.392 14.9746 167.424 14.9746C165.352 14.9746 163.896 16.5325 163.896 18.7286C163.896 20.9503 165.352 22.5082 167.424 22.5082C169.392 22.5082 170.798 20.9503 170.798 18.7286Z" fill="white"/>
<path d="M182.454 11.1948H176.984V7.79834H191.71V11.1948H186.24V25.3429H182.454V11.1948Z" fill="white"/>
<path d="M203.415 21.1801L205.793 23.6062C204.617 24.8319 202.341 25.6492 200.398 25.6492C196.461 25.6492 193.394 22.7634 193.394 18.7028C193.394 14.7188 196.334 11.833 200.194 11.833C204.336 11.833 206.764 14.9744 206.764 19.9541H197.229C197.664 21.3845 198.814 22.3554 200.374 22.3554C201.494 22.3314 202.57 21.9155 203.415 21.1801ZM197.279 17.2727H203.184C202.826 15.9704 201.854 15.1276 200.346 15.1276C199.675 15.1173 199.017 15.3191 198.467 15.7042C197.916 16.0893 197.501 16.6382 197.281 17.2727H197.279Z" fill="white"/>
<path d="M208.554 18.7285C208.554 14.9745 211.877 11.8331 215.789 11.8331C216.764 11.8208 217.73 12.0147 218.624 12.402C219.518 12.7893 220.321 13.3612 220.979 14.0804L218.499 16.2002C218.15 15.821 217.727 15.5168 217.257 15.306C216.787 15.0953 216.279 14.9825 215.763 14.9745C213.82 14.9745 212.184 16.6853 212.184 18.7029C212.184 20.7714 213.82 22.5081 215.789 22.5081C216.315 22.4941 216.834 22.3737 217.312 22.1543C217.791 21.9348 218.221 21.6208 218.575 21.2311L221.055 23.3253C220.39 24.0683 219.574 24.6602 218.661 25.0611C217.748 25.4619 216.76 25.6625 215.763 25.6492C211.852 25.6492 208.554 22.4825 208.554 18.7285Z" fill="white"/>
<path d="M235.856 16.941V25.3431H232.252V17.7326C232.252 16.0982 231.228 14.9746 229.746 14.9746C228.187 14.9746 226.985 16.0982 226.985 17.5283V25.3431H223.253V7.4917H226.985V13.7486C227.446 13.138 228.046 12.6459 228.735 12.3128C229.424 11.9798 230.183 11.8154 230.948 11.8332C233.811 11.8332 235.856 13.9543 235.856 16.941Z" fill="white"/>
<path d="M66.8949 41.5421C66.6297 41.7427 66.344 41.9147 66.0427 42.0554C65.7291 42.2009 65.401 42.3126 65.0638 42.3886C64.6805 42.4724 64.289 42.5126 63.8968 42.5087C62.9606 42.5218 62.0426 42.2494 61.2652 41.7278C60.4877 41.2061 59.8876 40.46 59.5448 39.5887C59.0706 38.3756 59.0706 37.0284 59.5448 35.8153C59.7717 35.2435 60.1063 34.7207 60.5304 34.2752C60.9563 33.831 61.4672 33.4771 62.0328 33.2347C62.6344 32.9772 63.283 32.8478 63.9373 32.8548C64.3265 32.8511 64.7151 32.8868 65.0971 32.9615C65.4268 33.0278 65.7487 33.1284 66.0576 33.2614C66.3463 33.387 66.6206 33.5435 66.8757 33.728C67.1301 33.9141 67.372 34.1168 67.5998 34.3347L66.8757 35.1085C66.4874 34.7452 66.0521 34.4358 65.5814 34.1885C64.8858 33.8424 64.0976 33.7282 63.3324 33.8627C62.5672 33.9971 61.8652 34.3731 61.3292 34.9356C60.9985 35.2894 60.739 35.7035 60.5648 36.1554C60.3786 36.6381 60.2853 37.1515 60.2898 37.6688C60.2855 38.1885 60.3788 38.7043 60.5648 39.1896C60.7378 39.6443 60.9974 40.0612 61.3292 40.4169C61.6561 40.7636 62.0482 41.0423 62.4832 41.2368C62.9363 41.4392 63.4277 41.5415 63.924 41.537C64.4986 41.5522 65.0687 41.4311 65.5875 41.1835C66.0897 40.9211 66.5507 40.5864 66.9557 40.1901L67.6532 40.8702C67.4175 41.1128 67.1641 41.3374 66.8949 41.5421Z" fill="white"/>
<path d="M82.4731 39.5146C82.2477 40.0856 81.9153 40.6083 81.4939 41.0546C81.0645 41.5055 80.5492 41.8658 79.9784 42.1144C79.3593 42.373 78.6951 42.5068 78.0241 42.5079C77.3532 42.5091 76.6886 42.3776 76.0686 42.121C75.5037 41.8784 74.9931 41.5252 74.567 41.0821C74.1408 40.6391 73.8077 40.1151 73.5872 39.5413C73.3582 38.9526 73.2422 38.326 73.2455 37.6944C73.2422 37.0622 73.3605 36.4353 73.5939 35.8478C73.8192 35.2768 74.1515 34.7541 74.5728 34.3078C75.0026 33.857 75.5181 33.4966 76.0891 33.2478C76.7082 32.9893 77.3723 32.8556 78.0432 32.8545C78.7141 32.8534 79.3787 32.9847 79.9987 33.2411C80.5637 33.4835 81.0744 33.8367 81.5005 34.2799C81.9267 34.723 82.2598 35.2471 82.48 35.8211C82.7096 36.4096 82.8259 37.0361 82.8226 37.6677C82.8254 38.3 82.7068 38.927 82.4731 39.5146ZM81.4466 36.1877C81.2732 35.7318 81.0112 35.3146 80.6758 34.9604C80.3417 34.6113 79.943 34.3304 79.5019 34.1333C79.0355 33.926 78.53 33.8215 78.0197 33.8267C77.5101 33.8213 77.0051 33.9235 76.5376 34.1266C76.0988 34.3177 75.7038 34.5968 75.3773 34.9468C75.0502 35.3021 74.7931 35.716 74.6195 36.1667C74.4341 36.6448 74.3407 37.1538 74.3444 37.6667C74.3411 38.1817 74.4344 38.6927 74.6195 39.1733C74.7929 39.6294 75.0551 40.0466 75.3909 40.4007C75.7249 40.7498 76.1236 41.0308 76.5648 41.2278C77.031 41.4355 77.5366 41.5401 78.047 41.5346C78.5565 41.54 79.0615 41.4378 79.5288 41.2344C79.9676 41.0436 80.3624 40.7645 80.6886 40.4145C81.016 40.0593 81.2731 39.6453 81.4464 39.1944C81.632 38.7163 81.7253 38.2073 81.7214 37.6944C81.7249 37.1797 81.6317 36.6689 81.4466 36.1885V36.1877Z" fill="white"/>
<path d="M96.3949 33.0151H97.4277V42.3484H96.583L90.5205 34.695V42.3484H89.4877V33.0151H90.4805L96.3949 40.4951V33.0151Z" fill="white"/>
<path d="M105.435 35.9393C105.519 36.1335 105.653 36.3017 105.824 36.4267C106.061 36.5994 106.324 36.7344 106.602 36.8269C107.018 36.9703 107.444 37.084 107.876 37.1674C108.923 37.3986 109.694 37.7188 110.19 38.1279C110.436 38.3338 110.632 38.5942 110.761 38.8885C110.891 39.1827 110.95 39.503 110.934 39.824C110.94 40.1934 110.863 40.5593 110.708 40.8945C110.552 41.2297 110.324 41.5257 110.038 41.7602C109.74 42.002 109.398 42.1832 109.03 42.2939C108.613 42.4218 108.178 42.4848 107.742 42.4806C107.039 42.4891 106.341 42.3665 105.683 42.1191C105.028 41.8572 104.426 41.4782 103.906 41.0006L104.563 40.2269C105.002 40.6367 105.505 40.9722 106.052 41.2202C106.6 41.4474 107.189 41.5587 107.782 41.5471C108.324 41.5745 108.86 41.4193 109.303 41.1063C109.485 40.973 109.632 40.7977 109.731 40.5954C109.83 40.3931 109.879 40.1697 109.874 39.9443C109.877 39.7412 109.841 39.5393 109.767 39.3502C109.684 39.1635 109.555 39.0009 109.392 38.8779C109.165 38.7104 108.912 38.5798 108.645 38.4908C108.247 38.3527 107.84 38.2411 107.428 38.1567C106.95 38.0585 106.481 37.9247 106.023 37.7565C105.666 37.6285 105.333 37.4435 105.036 37.2088C104.786 37.0092 104.588 36.7531 104.458 36.4617C104.326 36.1403 104.262 35.7951 104.271 35.4478C104.267 35.0921 104.345 34.7403 104.499 34.4195C104.652 34.1066 104.872 33.8309 105.142 33.6116C105.434 33.3767 105.766 33.196 106.122 33.078C106.52 32.9453 106.937 32.8799 107.356 32.8843C107.969 32.8722 108.58 32.968 109.16 33.1671C109.7 33.3702 110.205 33.6572 110.656 34.0177L110.038 34.831C109.644 34.501 109.198 34.2394 108.717 34.0572C108.272 33.8967 107.802 33.8155 107.33 33.8171C107.05 33.8135 106.771 33.8541 106.504 33.9374C106.277 34.0077 106.064 34.116 105.874 34.2576C105.704 34.3847 105.567 34.549 105.471 34.7378C105.378 34.9242 105.33 35.1301 105.331 35.3387C105.327 35.5437 105.362 35.7477 105.435 35.9393Z" fill="white"/>
<path d="M125.192 38.3617C125.203 38.9735 125.108 39.5826 124.91 40.1616C124.742 40.6459 124.469 41.0874 124.112 41.4551C123.764 41.804 123.342 42.0704 122.878 42.235C121.842 42.5818 120.722 42.5818 119.686 42.235C119.223 42.0713 118.801 41.807 118.452 41.4612C118.096 41.1003 117.823 40.6656 117.654 40.1878C117.457 39.6269 117.362 39.0355 117.372 38.4412V33.0151H118.432V38.3751C118.432 39.3889 118.684 40.1667 119.189 40.7083C119.463 40.9864 119.794 41.2028 120.158 41.3431C120.522 41.4834 120.913 41.5443 121.302 41.5218C121.681 41.5409 122.06 41.482 122.415 41.349C122.77 41.2159 123.095 41.0114 123.368 40.7481C123.877 40.2322 124.132 39.4634 124.132 38.4415V33.0151H125.192V38.3617Z" fill="white"/>
<path d="M132.126 33.0151H133.185V41.3751H138.47V42.3484H132.126V33.0151Z" fill="white"/>
<path d="M147.054 42.3484H145.994V33.9885H142.842V33.0151H150.206V33.9885H147.054V42.3484Z" fill="white"/>
<path d="M157.784 33.0151V42.3484H156.724V33.0151H157.784Z" fill="white"/>
<path d="M171.866 33.0151H172.899V42.3484H172.054L165.991 34.695V42.3484H164.959V33.0151H165.951L171.866 40.4951V33.0151Z" fill="white"/>
<path d="M186.493 42.0893C185.812 42.3768 185.079 42.5196 184.34 42.5084C183.657 42.5198 182.98 42.3927 182.348 42.1349C181.783 41.9022 181.273 41.5543 180.851 41.1136C180.428 40.6729 180.102 40.1489 179.893 39.5751C179.671 38.9733 179.559 38.3364 179.564 37.6949C179.562 37.0653 179.678 36.4408 179.906 35.8539C180.125 35.282 180.45 34.7568 180.865 34.3064C181.299 33.8388 181.827 33.4677 182.414 33.2173C183.001 32.9669 183.634 32.8429 184.272 32.8531C184.633 32.8507 184.994 32.8775 185.352 32.9332C185.663 32.9827 185.969 33.0632 186.264 33.1733C186.54 33.2776 186.805 33.4094 187.055 33.5668C187.306 33.7263 187.545 33.9022 187.773 34.0935L187.088 34.894C186.912 34.7356 186.723 34.5908 186.525 34.4607C186.324 34.3293 186.111 34.2177 185.888 34.1271C185.645 34.0296 185.394 33.956 185.137 33.9073C184.838 33.8516 184.535 33.8248 184.232 33.8272C183.736 33.8221 183.246 33.9271 182.797 34.1346C182.369 34.3312 181.986 34.6126 181.67 34.9617C181.35 35.3198 181.1 35.7341 180.932 36.1837C180.752 36.6593 180.661 37.1641 180.664 37.6728C180.658 38.2029 180.747 38.7297 180.926 39.2288C181.089 39.6863 181.342 40.1065 181.67 40.4644C181.997 40.8152 182.395 41.0929 182.837 41.2792C183.325 41.4814 183.85 41.5813 184.379 41.5727C184.897 41.5762 185.411 41.4831 185.894 41.2982C186.324 41.1402 186.727 40.9166 187.088 40.6354V38.3083H184.232V37.3745H188.108V41.085C187.626 41.5028 187.081 41.8417 186.493 42.0893Z" fill="white"/>
<path d="M203.371 33.0151H204.431V41.3751H209.715V42.3484H203.371V33.0151Z" fill="white"/>
<path d="M216.1 33.0151H217.16V41.3751H222.444V42.3484H216.1V33.0151Z" fill="white"/>
<path d="M235.561 37.3215C235.37 37.6972 235.097 38.0254 234.763 38.282C234.412 38.5479 234.013 38.7447 233.589 38.8621C233.126 38.9931 232.648 39.0582 232.167 39.0555H229.887V42.3487H228.828V33.015H232.342C232.83 33.0093 233.316 33.079 233.783 33.2215C234.188 33.3444 234.566 33.5436 234.896 33.8085C235.203 34.0597 235.446 34.3796 235.607 34.7423C235.777 35.1355 235.862 35.5605 235.855 35.9891C235.865 36.4504 235.764 36.9074 235.561 37.3215ZM234.104 34.5016C233.564 34.1363 232.92 33.9562 232.268 33.9883H229.888V38.095H232.214C232.571 38.0991 232.927 38.0496 233.269 37.9483C233.567 37.8613 233.846 37.7188 234.09 37.5283C234.313 37.3535 234.492 37.13 234.615 36.8749C234.738 36.61 234.8 36.3206 234.796 36.0283C234.815 35.7366 234.762 35.4446 234.641 35.1784C234.52 34.9121 234.336 34.6797 234.104 34.5016Z" fill="white"/>
<path d="M47.3333 15H35V2.57658C35 2.2382 34.9334 1.90314 34.804 1.59052C34.6745 1.2779 34.4847 0.993848 34.2454 0.754584C34.0062 0.51532 33.7221 0.325532 33.4095 0.196059C33.0969 0.0665867 32.7618 -3.43901e-05 32.4234 6.54237e-07H17.6668C17.3164 -0.000244759 16.9695 0.0685557 16.6457 0.202469C16.322 0.336383 16.0278 0.532784 15.7801 0.780447C15.5323 1.02811 15.3357 1.32218 15.2017 1.64584C15.0676 1.96951 14.9986 2.31642 14.9987 2.66676V10H20V5H30V20H45V30H35V25H30V30H25V35H47.3367C47.6868 34.9997 48.0334 34.9305 48.3567 34.7962C48.68 34.662 48.9737 34.4654 49.221 34.2176C49.4683 33.9699 49.6644 33.6758 49.7981 33.3523C49.9317 33.0287 50.0004 32.682 50 32.3319V17.6668C50.0001 17.3165 49.9311 16.9697 49.7972 16.6462C49.6632 16.3226 49.4667 16.0286 49.2191 15.7809C48.9714 15.5333 48.6774 15.3368 48.3539 15.2029C48.0303 15.0689 47.6835 14.9999 47.3333 15Z" fill="white"/>
<path d="M30 45H20V30H5V20H15V25H20V20H25V15H2.66996C2.31953 14.9998 1.9725 15.0685 1.64866 15.2024C1.32482 15.3363 1.03053 15.5327 0.782598 15.7803C0.534662 16.028 0.337938 16.322 0.203658 16.6457C0.0693791 16.9694 0.00017578 17.3163 6.54237e-07 17.6668V32.3332C-0.000244759 32.6836 0.0685557 33.0305 0.202469 33.3543C0.336383 33.678 0.532784 33.9722 0.780447 34.2199C1.02811 34.4677 1.32218 34.6643 1.64584 34.7984C1.96951 34.9324 2.31642 35.0014 2.66676 35.0013H15V47.3346C15 47.6851 15.0691 48.0322 15.2033 48.356C15.3375 48.6799 15.5342 48.9741 15.7821 49.2219C16.0301 49.4696 16.3244 49.6661 16.6484 49.8001C16.9723 49.9341 17.3194 50.0029 17.67 50.0027H32.3332C32.6837 50.0029 33.0308 49.9341 33.3546 49.8001C33.6784 49.6661 33.9726 49.4696 34.2204 49.2218C34.4682 48.9739 34.6647 48.6797 34.7987 48.3559C34.9327 48.0321 35.0016 47.685 35.0013 47.3346V40H30V45Z" fill="white"/>
</g>
<defs>
<clipPath id="clip0_60_164">
<rect width="235.856" height="50" fill="white"/>
</clipPath>
</defs>
</svg>
