<svg width="16" height="16" viewBox="0 0 16 16" fill="none" xmlns="http://www.w3.org/2000/svg">
<path d="M14.5937 1.90625H1.40623C1.1906 1.90625 0.987476 1.95938 0.803101 2.04688L7.96873 9.2125L9.57498 7.66875L15.1968 2.04688C15.0125 1.95938 14.8094 1.90625 14.5937 1.90625Z" fill="white"/>
<path d="M15.8594 2.70947L10.5687 8.0001L15.8594 13.2907C15.9469 13.1063 16 12.9032 16 12.6876V3.3126C16 3.09697 15.9469 2.89385 15.8594 2.70947Z" fill="white"/>
<path d="M0.140625 2.70947C0.053125 2.89385 0 3.09697 0 3.3126V12.6876C0 12.9032 0.053125 13.1063 0.140625 13.2907L5.43125 8.0001L0.140625 2.70947Z" fill="white"/>
<path d="M9.90623 8.6626L8.29998 10.2063C8.20935 10.297 8.08748 10.3438 7.96873 10.3438C7.84998 10.3438 7.7281 10.297 7.63748 10.2063L6.09373 8.6626L0.803101 13.9532C0.987476 14.0407 1.1906 14.0938 1.40623 14.0938H14.5937C14.8094 14.0938 15.0125 14.0407 15.1968 13.9532L9.90623 8.6626Z" fill="white"/>
</svg>
