<svg width="70" height="70" viewBox="0 0 70 70" fill="none" xmlns="http://www.w3.org/2000/svg">
<g clip-path="url(#clip0_61_248)">
<path d="M68.8333 23.3333H66.5V19.8333C66.5 19.5239 66.3771 19.2272 66.1583 19.0084C65.9395 18.7896 65.6428 18.6667 65.3333 18.6667H64.1667V9.33333H65.3333C65.6428 9.33333 65.9395 9.21042 66.1583 8.99162C66.3771 8.77283 66.5 8.47609 66.5 8.16667V1.16667C66.5 0.857247 66.3771 0.560501 66.1583 0.341709C65.9395 0.122916 65.6428 0 65.3333 0H49C48.6906 0 48.3938 0.122916 48.175 0.341709C47.9562 0.560501 47.8333 0.857247 47.8333 1.16667V8.16667C47.8333 8.47609 47.9562 8.77283 48.175 8.99162C48.3938 9.21042 48.6906 9.33333 49 9.33333H50.1667V18.6667H42V9.33333H43.1667C43.4761 9.33333 43.7728 9.21042 43.9916 8.99162C44.2104 8.77283 44.3333 8.47609 44.3333 8.16667V1.16667C44.3333 0.857247 44.2104 0.560501 43.9916 0.341709C43.7728 0.122916 43.4761 0 43.1667 0H26.8333C26.5239 0 26.2272 0.122916 26.0084 0.341709C25.7896 0.560501 25.6667 0.857247 25.6667 1.16667V8.16667C25.6667 8.47609 25.7896 8.77283 26.0084 8.99162C26.2272 9.21042 26.5239 9.33333 26.8333 9.33333H28V18.6667H19.8333V9.33333H21C21.3094 9.33333 21.6062 9.21042 21.825 8.99162C22.0438 8.77283 22.1667 8.47609 22.1667 8.16667V1.16667C22.1667 0.857247 22.0438 0.560501 21.825 0.341709C21.6062 0.122916 21.3094 0 21 0H4.66667C4.35725 0 4.0605 0.122916 3.84171 0.341709C3.62292 0.560501 3.5 0.857247 3.5 1.16667V8.16667C3.5 8.47609 3.62292 8.77283 3.84171 8.99162C4.0605 9.21042 4.35725 9.33333 4.66667 9.33333H5.83333V18.6667H3.5C3.19058 18.6667 2.89383 18.7896 2.67504 19.0084C2.45625 19.2272 2.33333 19.5239 2.33333 19.8333V23.3333H1.16667C0.857247 23.3333 0.560501 23.4562 0.341709 23.675C0.122916 23.8938 0 24.1906 0 24.5V68.8333C0 69.1428 0.122916 69.4395 0.341709 69.6583C0.560501 69.8771 0.857247 70 1.16667 70H68.8333C69.1428 70 69.4395 69.8771 69.6583 69.6583C69.8771 69.4395 70 69.1428 70 68.8333V24.5C70 24.1906 69.8771 23.8938 69.6583 23.675C69.4395 23.4562 69.1428 23.3333 68.8333 23.3333ZM54.8333 7V2.33333H59.5V7H54.8333ZM64.1667 7H61.8333V2.33333H64.1667V7ZM50.1667 2.33333H52.5V7H50.1667V2.33333ZM61.8333 9.33333V18.6667H59.5V12.8333C59.5 12.5239 59.3771 12.2272 59.1583 12.0084C58.9395 11.7896 58.6427 11.6667 58.3333 11.6667H52.5V9.33333H61.8333ZM52.5 14H57.1667V18.6667H52.5V14ZM32.6667 7V2.33333H37.3333V7H32.6667ZM42 7H39.6667V2.33333H42V7ZM28 2.33333H30.3333V7H28V2.33333ZM39.6667 9.33333V18.6667H37.3333V12.8333C37.3333 12.5239 37.2104 12.2272 36.9916 12.0084C36.7728 11.7896 36.4761 11.6667 36.1667 11.6667H30.3333V9.33333H39.6667ZM30.3333 14H35V18.6667H30.3333V14ZM10.5 7V2.33333H15.1667V7H10.5ZM19.8333 7H17.5V2.33333H19.8333V7ZM5.83333 2.33333H8.16667V7H5.83333V2.33333ZM17.5 9.33333V18.6667H15.1667V12.8333C15.1667 12.5239 15.0437 12.2272 14.825 12.0084C14.6062 11.7896 14.3094 11.6667 14 11.6667H8.16667V9.33333H17.5ZM8.16667 14H12.8333V18.6667H8.16667V14ZM4.66667 21H64.1667V23.3333H4.66667V21ZM67.6667 67.6667H2.33333V25.6667H67.6667V67.6667Z" fill="#800000"/>
<path d="M5.83335 64.1667H36.1667C36.4761 64.1667 36.7729 64.0437 36.9916 63.8249C37.2104 63.6062 37.3334 63.3094 37.3334 63V30.3333C37.3334 30.0239 37.2104 29.7272 36.9916 29.5084C36.7729 29.2896 36.4761 29.1667 36.1667 29.1667H5.83335C5.52393 29.1667 5.22719 29.2896 5.0084 29.5084C4.7896 29.7272 4.66669 30.0239 4.66669 30.3333V63C4.66669 63.3094 4.7896 63.6062 5.0084 63.8249C5.22719 64.0437 5.52393 64.1667 5.83335 64.1667ZM7.00002 61.8333V54.145L14 47.145L17.8384 50.995C17.9468 51.1043 18.0758 51.1911 18.218 51.2504C18.3602 51.3096 18.5127 51.3401 18.6667 51.3401C18.8207 51.3401 18.9732 51.3096 19.1154 51.2504C19.2575 51.1911 19.3866 51.1043 19.495 50.995L25.7717 44.7067L29.6334 47.6C29.8728 47.78 30.1723 47.8611 30.4699 47.8263C30.7674 47.7916 31.0402 47.6437 31.2317 47.4133L35 42.8867V61.8333H7.00002ZM35 31.5V39.2467L30.1467 45.08L26.3667 42.2333C26.1422 42.0635 25.8638 41.9805 25.5829 41.9998C25.302 42.0191 25.0376 42.1394 24.8384 42.3383L18.6667 48.5217L14.8284 44.6717C14.7199 44.5623 14.5909 44.4755 14.4487 44.4163C14.3065 44.3571 14.154 44.3266 14 44.3266C13.846 44.3266 13.6935 44.3571 13.5513 44.4163C13.4092 44.4755 13.2801 44.5623 13.1717 44.6717L7.00002 50.855V31.5H35Z" fill="#800000"/>
<path d="M59.5 36.1667H64.1666C64.4761 36.1667 64.7728 36.0437 64.9916 35.8249C65.2104 35.6062 65.3333 35.3094 65.3333 35V30.3333C65.3333 30.0239 65.2104 29.7272 64.9916 29.5084C64.7728 29.2896 64.4761 29.1667 64.1666 29.1667H59.5C59.1906 29.1667 58.8938 29.2896 58.675 29.5084C58.4562 29.7272 58.3333 30.0239 58.3333 30.3333V35C58.3333 35.3094 58.4562 35.6062 58.675 35.8249C58.8938 36.0437 59.1906 36.1667 59.5 36.1667ZM60.6666 31.5H63V33.8333H60.6666V31.5Z" fill="#800000"/>
<path d="M50.1667 36.1667H54.8333C55.1428 36.1667 55.4395 36.0437 55.6583 35.8249C55.8771 35.6062 56 35.3094 56 35V30.3333C56 30.0239 55.8771 29.7272 55.6583 29.5084C55.4395 29.2896 55.1428 29.1667 54.8333 29.1667H50.1667C49.8572 29.1667 49.5605 29.2896 49.3417 29.5084C49.1229 29.7272 49 30.0239 49 30.3333V35C49 35.3094 49.1229 35.6062 49.3417 35.8249C49.5605 36.0437 49.8572 36.1667 50.1667 36.1667ZM51.3333 31.5H53.6667V33.8333H51.3333V31.5Z" fill="#800000"/>
<path d="M40.8334 36.1667H45.5C45.8094 36.1667 46.1062 36.0437 46.325 35.8249C46.5438 35.6062 46.6667 35.3094 46.6667 35V30.3333C46.6667 30.0239 46.5438 29.7272 46.325 29.5084C46.1062 29.2896 45.8094 29.1667 45.5 29.1667H40.8334C40.5239 29.1667 40.2272 29.2896 40.0084 29.5084C39.7896 29.7272 39.6667 30.0239 39.6667 30.3333V35C39.6667 35.3094 39.7896 35.6062 40.0084 35.8249C40.2272 36.0437 40.5239 36.1667 40.8334 36.1667ZM42 31.5H44.3334V33.8333H42V31.5Z" fill="#800000"/>
<path d="M59.5 64.1667H64.1666C64.4761 64.1667 64.7728 64.0438 64.9916 63.825C65.2104 63.6062 65.3333 63.3094 65.3333 63V58.3334C65.3333 58.0239 65.2104 57.7272 64.9916 57.5084C64.7728 57.2896 64.4761 57.1667 64.1666 57.1667H59.5C59.1906 57.1667 58.8938 57.2896 58.675 57.5084C58.4562 57.7272 58.3333 58.0239 58.3333 58.3334V63C58.3333 63.3094 58.4562 63.6062 58.675 63.825C58.8938 64.0438 59.1906 64.1667 59.5 64.1667ZM60.6666 59.5H63V61.8334H60.6666V59.5Z" fill="#800000"/>
<path d="M50.1667 64.1667H54.8333C55.1428 64.1667 55.4395 64.0438 55.6583 63.825C55.8771 63.6062 56 63.3094 56 63V58.3334C56 58.0239 55.8771 57.7272 55.6583 57.5084C55.4395 57.2896 55.1428 57.1667 54.8333 57.1667H50.1667C49.8572 57.1667 49.5605 57.2896 49.3417 57.5084C49.1229 57.7272 49 58.0239 49 58.3334V63C49 63.3094 49.1229 63.6062 49.3417 63.825C49.5605 64.0438 49.8572 64.1667 50.1667 64.1667ZM51.3333 59.5H53.6667V61.8334H51.3333V59.5Z" fill="#800000"/>
<path d="M40.8334 64.1667H45.5C45.8094 64.1667 46.1062 64.0438 46.325 63.825C46.5438 63.6062 46.6667 63.3094 46.6667 63V58.3334C46.6667 58.0239 46.5438 57.7272 46.325 57.5084C46.1062 57.2896 45.8094 57.1667 45.5 57.1667H40.8334C40.5239 57.1667 40.2272 57.2896 40.0084 57.5084C39.7896 57.7272 39.6667 58.0239 39.6667 58.3334V63C39.6667 63.3094 39.7896 63.6062 40.0084 63.825C40.2272 64.0438 40.5239 64.1667 40.8334 64.1667ZM42 59.5H44.3334V61.8334H42V59.5Z" fill="#800000"/>
<path d="M59.5 54.8333H64.1666C64.4761 54.8333 64.7728 54.7104 64.9916 54.4916C65.2104 54.2728 65.3333 53.9761 65.3333 53.6667V49C65.3333 48.6906 65.2104 48.3938 64.9916 48.1751C64.7728 47.9563 64.4761 47.8333 64.1666 47.8333H59.5C59.1906 47.8333 58.8938 47.9563 58.675 48.1751C58.4562 48.3938 58.3333 48.6906 58.3333 49V53.6667C58.3333 53.9761 58.4562 54.2728 58.675 54.4916C58.8938 54.7104 59.1906 54.8333 59.5 54.8333ZM60.6666 50.1667H63V52.5H60.6666V50.1667Z" fill="#800000"/>
<path d="M50.1667 54.8333H54.8333C55.1428 54.8333 55.4395 54.7104 55.6583 54.4916C55.8771 54.2728 56 53.9761 56 53.6667V49C56 48.6906 55.8771 48.3938 55.6583 48.1751C55.4395 47.9563 55.1428 47.8333 54.8333 47.8333H50.1667C49.8572 47.8333 49.5605 47.9563 49.3417 48.1751C49.1229 48.3938 49 48.6906 49 49V53.6667C49 53.9761 49.1229 54.2728 49.3417 54.4916C49.5605 54.7104 49.8572 54.8333 50.1667 54.8333ZM51.3333 50.1667H53.6667V52.5H51.3333V50.1667Z" fill="#800000"/>
<path d="M40.8334 54.8333H45.5C45.8094 54.8333 46.1062 54.7104 46.325 54.4916C46.5438 54.2728 46.6667 53.9761 46.6667 53.6667V49C46.6667 48.6906 46.5438 48.3938 46.325 48.1751C46.1062 47.9563 45.8094 47.8333 45.5 47.8333H40.8334C40.5239 47.8333 40.2272 47.9563 40.0084 48.1751C39.7896 48.3938 39.6667 48.6906 39.6667 49V53.6667C39.6667 53.9761 39.7896 54.2728 40.0084 54.4916C40.2272 54.7104 40.5239 54.8333 40.8334 54.8333ZM42 50.1667H44.3334V52.5H42V50.1667Z" fill="#800000"/>
<path d="M59.5 45.5H64.1666C64.4761 45.5 64.7728 45.3771 64.9916 45.1583C65.2104 44.9395 65.3333 44.6428 65.3333 44.3333V39.6667C65.3333 39.3572 65.2104 39.0605 64.9916 38.8417C64.7728 38.6229 64.4761 38.5 64.1666 38.5H59.5C59.1906 38.5 58.8938 38.6229 58.675 38.8417C58.4562 39.0605 58.3333 39.3572 58.3333 39.6667V44.3333C58.3333 44.6428 58.4562 44.9395 58.675 45.1583C58.8938 45.3771 59.1906 45.5 59.5 45.5ZM60.6666 40.8333H63V43.1667H60.6666V40.8333Z" fill="#800000"/>
<path d="M50.1667 45.5H54.8333C55.1428 45.5 55.4395 45.3771 55.6583 45.1583C55.8771 44.9395 56 44.6428 56 44.3333V39.6667C56 39.3572 55.8771 39.0605 55.6583 38.8417C55.4395 38.6229 55.1428 38.5 54.8333 38.5H50.1667C49.8572 38.5 49.5605 38.6229 49.3417 38.8417C49.1229 39.0605 49 39.3572 49 39.6667V44.3333C49 44.6428 49.1229 44.9395 49.3417 45.1583C49.5605 45.3771 49.8572 45.5 50.1667 45.5ZM51.3333 40.8333H53.6667V43.1667H51.3333V40.8333Z" fill="#800000"/>
<path d="M40.8334 45.5H45.5C45.8094 45.5 46.1062 45.3771 46.325 45.1583C46.5438 44.9395 46.6667 44.6428 46.6667 44.3333V39.6667C46.6667 39.3572 46.5438 39.0605 46.325 38.8417C46.1062 38.6229 45.8094 38.5 45.5 38.5H40.8334C40.5239 38.5 40.2272 38.6229 40.0084 38.8417C39.7896 39.0605 39.6667 39.3572 39.6667 39.6667V44.3333C39.6667 44.6428 39.7896 44.9395 40.0084 45.1583C40.2272 45.3771 40.5239 45.5 40.8334 45.5ZM42 40.8333H44.3334V43.1667H42V40.8333Z" fill="#800000"/>
</g>
<defs>
<clipPath id="clip0_61_248">
<rect width="70" height="70" fill="white"/>
</clipPath>
</defs>
</svg>
