<svg width="236" height="50" viewBox="0 0 236 50" fill="none" xmlns="http://www.w3.org/2000/svg">
<g clip-path="url(#clip0_1_30)">
<path d="M59.1892 7.79828H65.4784C71.3839 7.79828 75.5766 11.4245 75.5766 16.5576C75.5766 21.6908 71.3839 25.3428 65.4784 25.3428H59.1892V7.79828ZM65.964 21.9205C69.3132 21.9205 71.6908 19.6988 71.6908 16.5576C71.6908 13.4421 69.3132 11.2201 65.964 11.2201H62.9472V21.9205H65.964Z" fill="black"/>
<path d="M94.8002 21.6916L96.436 23.1219L94.5184 25.3436L92.7289 23.7857C91.1155 25 89.1498 25.6545 87.1305 25.6499C82.0939 25.6499 77.7988 21.4877 77.7988 16.5584C77.7988 11.6291 82.0945 7.49225 87.1305 7.49225C92.218 7.49225 96.4613 11.6297 96.4613 16.5584C96.4553 18.4006 95.8746 20.1951 94.8002 21.6916ZM89.9426 21.3853L87.8976 19.5976L89.8148 17.3759L91.9362 19.2145C92.3771 18.399 92.6057 17.4857 92.6011 16.5587C92.6011 13.5197 90.0958 10.9149 87.1315 10.9149C84.1916 10.9149 81.6857 13.5197 81.6857 16.5587C81.6857 19.6235 84.1916 22.2284 87.1315 22.2284C88.1308 22.2269 89.1078 21.9336 89.9426 21.3845V21.3853Z" fill="black"/>
<path d="M109.805 25.3428L105.792 19.6478H103.005V25.3428H99.2468V7.79828H107.146C110.955 7.79828 113.768 10.2497 113.768 13.723C113.768 16.3279 112.182 18.3709 109.78 19.2134L114.1 25.3428H109.805ZM103.005 16.2001H106.737C108.605 16.2001 109.882 15.2297 109.882 13.723C109.882 12.2164 108.604 11.2457 106.737 11.2457H103.005V16.2001Z" fill="black"/>
<path d="M123.864 7.79828H127.622L133.067 17.707L138.487 7.79828H142.271V25.3428H138.487V14.4125L133.067 24.3212L127.622 14.4125V25.3428H123.864V7.79828Z" fill="black"/>
<path d="M155.051 21.1801L157.429 23.6062C156.253 24.8319 153.978 25.6491 152.035 25.6491C148.098 25.6491 145.03 22.7633 145.03 18.7028C145.03 14.7188 147.97 11.833 151.83 11.833C155.972 11.833 158.4 14.9744 158.4 19.9541H148.865C149.299 21.3845 150.45 22.3554 152.009 22.3554C153.13 22.3316 154.206 21.9157 155.051 21.1801ZM148.914 17.2727H154.82C154.462 15.9704 153.491 15.1275 151.982 15.1275C151.31 15.1172 150.652 15.3189 150.102 15.704C149.551 16.0891 149.136 16.6381 148.916 17.2727H148.914Z" fill="black"/>
<path d="M174.531 7.49146V25.3428H170.798V23.4525C170.285 24.1457 169.613 24.7065 168.839 25.0885C168.066 25.4704 167.212 25.6625 166.35 25.6489C162.822 25.6489 160.266 22.7887 160.266 18.7281C160.266 14.6932 162.823 11.8327 166.35 11.8327C167.212 11.8191 168.066 12.0113 168.839 12.3932C169.613 12.7752 170.285 13.3359 170.798 14.0291V7.49226L174.531 7.49146ZM170.798 18.7284C170.798 16.5323 169.392 14.9744 167.424 14.9744C165.352 14.9744 163.896 16.5323 163.896 18.7284C163.896 20.9501 165.352 22.508 167.424 22.508C169.392 22.508 170.798 20.9501 170.798 18.7284Z" fill="black"/>
<path d="M182.454 11.1948H176.984V7.79828H191.71V11.1948H186.24V25.3428H182.454V11.1948Z" fill="black"/>
<path d="M203.415 21.1801L205.793 23.6062C204.617 24.8319 202.341 25.6491 200.398 25.6491C196.461 25.6491 193.394 22.7633 193.394 18.7028C193.394 14.7188 196.334 11.833 200.194 11.833C204.336 11.833 206.764 14.9744 206.764 19.9541H197.229C197.664 21.3845 198.814 22.3554 200.374 22.3554C201.494 22.3314 202.57 21.9155 203.415 21.1801ZM197.279 17.2727H203.184C202.826 15.9704 201.854 15.1275 200.346 15.1275C199.675 15.1173 199.017 15.3191 198.467 15.7042C197.916 16.0893 197.501 16.6382 197.281 17.2727H197.279Z" fill="black"/>
<path d="M208.554 18.7284C208.554 14.9744 211.877 11.833 215.789 11.833C216.764 11.8207 217.73 12.0146 218.624 12.4019C219.518 12.7892 220.321 13.3612 220.979 14.0803L218.499 16.2001C218.15 15.8209 217.727 15.5167 217.257 15.3059C216.787 15.0952 216.279 14.9824 215.763 14.9744C213.82 14.9744 212.184 16.6852 212.184 18.7028C212.184 20.7713 213.82 22.508 215.789 22.508C216.315 22.494 216.834 22.3736 217.312 22.1542C217.791 21.9347 218.221 21.6207 218.575 21.2311L221.055 23.3252C220.39 24.0682 219.574 24.6601 218.661 25.061C217.748 25.4618 216.76 25.6624 215.763 25.6491C211.852 25.6491 208.554 22.4824 208.554 18.7284Z" fill="black"/>
<path d="M235.856 16.9408V25.3428H232.252V17.7324C232.252 16.0979 231.228 14.9744 229.746 14.9744C228.187 14.9744 226.985 16.0979 226.985 17.528V25.3428H223.253V7.49146H226.985V13.7484C227.446 13.1378 228.046 12.6456 228.735 12.3126C229.424 11.9795 230.183 11.8151 230.948 11.833C233.811 11.833 235.856 13.9541 235.856 16.9408Z" fill="black"/>
<path d="M66.8949 41.5421C66.6297 41.7428 66.344 41.9148 66.0427 42.0555C65.7291 42.201 65.401 42.3127 65.0638 42.3887C64.6805 42.4725 64.289 42.5127 63.8968 42.5088C62.9606 42.5219 62.0426 42.2495 61.2652 41.7279C60.4877 41.2062 59.8876 40.4601 59.5448 39.5888C59.0706 38.3757 59.0706 37.0285 59.5448 35.8154C59.7717 35.2436 60.1063 34.7208 60.5304 34.2753C60.9563 33.8311 61.4672 33.4772 62.0328 33.2348C62.6344 32.9773 63.283 32.8479 63.9373 32.8548C64.3265 32.8512 64.7151 32.8869 65.0971 32.9616C65.4268 33.0279 65.7487 33.1284 66.0576 33.2615C66.3463 33.3871 66.6206 33.5436 66.8757 33.7281C67.1301 33.9142 67.372 34.1169 67.5998 34.3348L66.8757 35.1086C66.4874 34.7453 66.0521 34.4359 65.5814 34.1886C64.8858 33.8425 64.0976 33.7283 63.3324 33.8628C62.5672 33.9972 61.8652 34.3732 61.3292 34.9357C60.9985 35.2895 60.739 35.7036 60.5648 36.1555C60.3786 36.6381 60.2853 37.1516 60.2898 37.6689C60.2855 38.1886 60.3788 38.7044 60.5648 39.1897C60.7378 39.6444 60.9974 40.0612 61.3292 40.417C61.6561 40.7637 62.0482 41.0424 62.4832 41.2369C62.9363 41.4392 63.4277 41.5416 63.924 41.5371C64.4986 41.5523 65.0687 41.4311 65.5875 41.1836C66.0897 40.9212 66.5507 40.5865 66.9557 40.1902L67.6532 40.8703C67.4175 41.1129 67.1641 41.3375 66.8949 41.5421Z" fill="#800000"/>
<path d="M82.4731 39.5144C82.2477 40.0854 81.9153 40.6081 81.4939 41.0544C81.0645 41.5053 80.5492 41.8656 79.9784 42.1142C79.3593 42.3728 78.6951 42.5066 78.0241 42.5077C77.3532 42.5089 76.6886 42.3774 76.0686 42.1209C75.5037 41.8783 74.9931 41.525 74.567 41.0819C74.1408 40.6389 73.8077 40.1149 73.5872 39.5411C73.3582 38.9524 73.2422 38.3259 73.2455 37.6942C73.2422 37.062 73.3605 36.4351 73.5939 35.8476C73.8192 35.2767 74.1515 34.754 74.5728 34.3076C75.0026 33.8568 75.5181 33.4964 76.0891 33.2476C76.7082 32.9891 77.3723 32.8555 78.0432 32.8543C78.7141 32.8532 79.3787 32.9846 79.9987 33.2409C80.5637 33.4833 81.0744 33.8366 81.5005 34.2797C81.9267 34.7228 82.2598 35.2469 82.48 35.821C82.7096 36.4094 82.8259 37.0359 82.8226 37.6675C82.8254 38.2999 82.7068 38.9268 82.4731 39.5144ZM81.4466 36.1876C81.2732 35.7316 81.0112 35.3145 80.6758 34.9602C80.3417 34.6112 79.943 34.3303 79.5019 34.1331C79.0355 33.9258 78.53 33.8213 78.0197 33.8266C77.5101 33.8211 77.0051 33.9233 76.5376 34.1265C76.0988 34.3175 75.7038 34.5967 75.3773 34.9466C75.0502 35.3019 74.7931 35.7158 74.6195 36.1665C74.4341 36.6447 74.3407 37.1536 74.3444 37.6665C74.3411 38.1815 74.4344 38.6925 74.6195 39.1731C74.7929 39.6293 75.0551 40.0464 75.3909 40.4005C75.7249 40.7497 76.1236 41.0306 76.5648 41.2276C77.031 41.4353 77.5366 41.54 78.047 41.5344C78.5565 41.5399 79.0615 41.4376 79.5288 41.2342C79.9676 41.0434 80.3624 40.7643 80.6886 40.4143C81.016 40.0592 81.2731 39.6451 81.4464 39.1942C81.632 38.7161 81.7253 38.2071 81.7214 37.6942C81.7249 37.1795 81.6317 36.6687 81.4466 36.1884V36.1876Z" fill="#800000"/>
<path d="M96.3949 33.0152H97.4277V42.3484H96.583L90.5205 34.695V42.3484H89.4877V33.0152H90.4805L96.3949 40.4952V33.0152Z" fill="#800000"/>
<path d="M105.435 35.9392C105.519 36.1333 105.653 36.3016 105.824 36.4266C106.061 36.5993 106.324 36.7343 106.602 36.8268C107.018 36.9701 107.444 37.0839 107.876 37.1673C108.923 37.3985 109.694 37.7187 110.19 38.1278C110.436 38.3337 110.632 38.594 110.761 38.8883C110.891 39.1826 110.95 39.5029 110.934 39.8239C110.94 40.1932 110.863 40.5591 110.708 40.8944C110.552 41.2296 110.324 41.5255 110.038 41.7601C109.74 42.0019 109.398 42.1831 109.03 42.2937C108.613 42.4217 108.178 42.4846 107.742 42.4805C107.039 42.489 106.341 42.3664 105.683 42.119C105.028 41.8571 104.426 41.4781 103.906 41.0005L104.563 40.2268C105.002 40.6366 105.505 40.9721 106.052 41.2201C106.6 41.4473 107.189 41.5586 107.782 41.5469C108.324 41.5744 108.86 41.4192 109.303 41.1062C109.485 40.9729 109.632 40.7976 109.731 40.5953C109.83 40.3929 109.879 40.1696 109.874 39.9442C109.877 39.7411 109.841 39.5392 109.767 39.35C109.684 39.1633 109.555 39.0008 109.392 38.8778C109.165 38.7103 108.912 38.5797 108.645 38.4907C108.247 38.3526 107.84 38.241 107.428 38.1566C106.95 38.0583 106.481 37.9246 106.023 37.7564C105.666 37.6283 105.333 37.4434 105.036 37.2086C104.786 37.0091 104.588 36.753 104.458 36.4616C104.326 36.1402 104.262 35.7949 104.271 35.4477C104.267 35.092 104.345 34.7401 104.499 34.4194C104.652 34.1065 104.872 33.8307 105.142 33.6115C105.434 33.3766 105.766 33.1959 106.122 33.0779C106.52 32.9452 106.937 32.8798 107.356 32.8842C107.969 32.8721 108.58 32.9678 109.16 33.167C109.7 33.37 110.205 33.6571 110.656 34.0176L110.038 34.8308C109.644 34.5008 109.198 34.2393 108.717 34.0571C108.272 33.8966 107.802 33.8153 107.33 33.817C107.05 33.8134 106.771 33.854 106.504 33.9373C106.277 34.0076 106.064 34.1159 105.874 34.2575C105.704 34.3846 105.567 34.5489 105.471 34.7377C105.378 34.9241 105.33 35.13 105.331 35.3386C105.327 35.5436 105.362 35.7476 105.435 35.9392Z" fill="#800000"/>
<path d="M125.192 38.3618C125.203 38.9736 125.108 39.5826 124.91 40.1617C124.742 40.646 124.469 41.0875 124.112 41.4552C123.764 41.804 123.342 42.0705 122.878 42.235C121.842 42.5819 120.722 42.5819 119.686 42.235C119.223 42.0713 118.801 41.8071 118.452 41.4613C118.096 41.1004 117.823 40.6656 117.654 40.1878C117.457 39.627 117.362 39.0356 117.372 38.4413V33.0152H118.432V38.3751C118.432 39.389 118.684 40.1667 119.189 40.7084C119.463 40.9865 119.794 41.2029 120.158 41.3432C120.522 41.4835 120.913 41.5444 121.302 41.5219C121.681 41.5409 122.06 41.4821 122.415 41.349C122.77 41.2159 123.095 41.0114 123.368 40.7481C123.877 40.2323 124.132 39.4634 124.132 38.4416V33.0152H125.192V38.3618Z" fill="#800000"/>
<path d="M132.126 33.0152H133.185V41.3751H138.47V42.3484H132.126V33.0152Z" fill="#800000"/>
<path d="M147.054 42.3484H145.994V33.9885H142.842V33.0152H150.206V33.9885H147.054V42.3484Z" fill="#800000"/>
<path d="M157.784 33.0152V42.3484H156.724V33.0152H157.784Z" fill="#800000"/>
<path d="M171.866 33.0152H172.899V42.3484H172.054L165.991 34.695V42.3484H164.959V33.0152H165.951L171.866 40.4952V33.0152Z" fill="#800000"/>
<path d="M186.493 42.0894C185.812 42.3769 185.079 42.5197 184.34 42.5085C183.657 42.5199 182.98 42.3929 182.348 42.135C181.783 41.9023 181.273 41.5545 180.851 41.1137C180.428 40.673 180.102 40.149 179.893 39.5752C179.671 38.9735 179.559 38.3365 179.564 37.695C179.562 37.0654 179.678 36.4409 179.906 35.854C180.125 35.2821 180.45 34.757 180.865 34.3066C181.299 33.8389 181.827 33.4678 182.414 33.2174C183.001 32.9671 183.634 32.843 184.272 32.8533C184.633 32.8508 184.994 32.8776 185.352 32.9333C185.663 32.9828 185.969 33.0633 186.264 33.1734C186.54 33.2777 186.805 33.4095 187.055 33.567C187.306 33.7264 187.545 33.9023 187.773 34.0936L187.088 34.8941C186.912 34.7357 186.723 34.5909 186.525 34.4608C186.324 34.3295 186.111 34.2178 185.888 34.1273C185.645 34.0297 185.394 33.9561 185.137 33.9074C184.838 33.8517 184.535 33.8249 184.232 33.8274C183.736 33.8223 183.246 33.9272 182.797 34.1347C182.369 34.3313 181.986 34.6127 181.67 34.9618C181.35 35.3199 181.1 35.7343 180.932 36.1838C180.752 36.6594 180.661 37.1642 180.664 37.6729C180.658 38.203 180.747 38.7298 180.926 39.2289C181.089 39.6864 181.342 40.1066 181.67 40.4645C181.997 40.8153 182.395 41.093 182.837 41.2793C183.325 41.4815 183.85 41.5814 184.379 41.5728C184.897 41.5763 185.411 41.4832 185.894 41.2983C186.324 41.1403 186.727 40.9167 187.088 40.6355V38.3084H184.232V37.3746H188.108V41.0851C187.626 41.5029 187.081 41.8419 186.493 42.0894Z" fill="#800000"/>
<path d="M203.371 33.0152H204.431V41.3751H209.715V42.3484H203.371V33.0152Z" fill="#800000"/>
<path d="M216.1 33.0152H217.16V41.3751H222.444V42.3484H216.1V33.0152Z" fill="#800000"/>
<path d="M235.561 37.3218C235.37 37.6974 235.097 38.0256 234.763 38.2823C234.412 38.5481 234.013 38.7449 233.589 38.8623C233.126 38.9934 232.648 39.0585 232.167 39.0558H229.887V42.349H228.828V33.0152H232.342C232.83 33.0096 233.316 33.0792 233.783 33.2217C234.188 33.3446 234.566 33.5438 234.896 33.8087C235.203 34.0599 235.446 34.3798 235.607 34.7425C235.777 35.1357 235.862 35.5608 235.855 35.9893C235.865 36.4506 235.764 36.9076 235.561 37.3218ZM234.104 34.5019C233.564 34.1366 232.92 33.9564 232.268 33.9885H229.888V38.0953H232.214C232.571 38.0993 232.927 38.0499 233.269 37.9485C233.567 37.8615 233.846 37.719 234.09 37.5286C234.313 37.3538 234.492 37.1302 234.615 36.8751C234.738 36.6102 234.8 36.3208 234.796 36.0286C234.815 35.7368 234.762 35.4449 234.641 35.1786C234.52 34.9123 234.336 34.6799 234.104 34.5019Z" fill="#800000"/>
<path d="M47.3333 15H35V2.57658C35 2.2382 34.9334 1.90314 34.804 1.59052C34.6745 1.2779 34.4847 0.993848 34.2454 0.754584C34.0062 0.51532 33.7221 0.325532 33.4095 0.196059C33.0969 0.0665867 32.7618 -3.43901e-05 32.4234 6.54237e-07H17.6668C17.3164 -0.000244759 16.9695 0.0685557 16.6457 0.202469C16.322 0.336383 16.0278 0.532784 15.7801 0.780447C15.5323 1.02811 15.3357 1.32218 15.2017 1.64584C15.0676 1.96951 14.9986 2.31642 14.9987 2.66676V10H20V5H30V20H45V30H35V25H30V30H25V35H47.3367C47.6868 34.9997 48.0334 34.9305 48.3567 34.7962C48.68 34.662 48.9737 34.4654 49.221 34.2176C49.4683 33.9699 49.6644 33.6758 49.7981 33.3523C49.9317 33.0287 50.0004 32.682 50 32.3319V17.6668C50.0001 17.3165 49.9311 16.9697 49.7972 16.6462C49.6632 16.3226 49.4667 16.0286 49.2191 15.7809C48.9714 15.5333 48.6774 15.3368 48.3539 15.2029C48.0303 15.0689 47.6835 14.9999 47.3333 15Z" fill="#800000"/>
<path d="M30 45H20V30H5V20H15V25H20V20H25V15H2.66996C2.31953 14.9998 1.9725 15.0685 1.64866 15.2024C1.32482 15.3363 1.03053 15.5327 0.782598 15.7803C0.534662 16.028 0.337938 16.322 0.203658 16.6457C0.0693791 16.9694 0.00017578 17.3163 6.54237e-07 17.6668V32.3332C-0.000244759 32.6836 0.0685557 33.0305 0.202469 33.3543C0.336383 33.678 0.532784 33.9722 0.780447 34.2199C1.02811 34.4677 1.32218 34.6643 1.64584 34.7984C1.96951 34.9324 2.31642 35.0014 2.66676 35.0013H15V47.3346C15 47.6851 15.0691 48.0322 15.2033 48.356C15.3375 48.6799 15.5342 48.9741 15.7821 49.2219C16.0301 49.4696 16.3244 49.6661 16.6484 49.8001C16.9723 49.9341 17.3194 50.0029 17.67 50.0027H32.3332C32.6837 50.0029 33.0308 49.9341 33.3546 49.8001C33.6784 49.6661 33.9726 49.4696 34.2204 49.2218C34.4682 48.9739 34.6647 48.6797 34.7987 48.3559C34.9327 48.0321 35.0016 47.685 35.0013 47.3346V40H30V45Z" fill="#800000"/>
</g>
<defs>
<clipPath id="clip0_1_30">
<rect width="235.856" height="50" fill="white"/>
</clipPath>
</defs>
</svg>
