<svg width="12" height="12" viewBox="0 0 12 12" fill="none" xmlns="http://www.w3.org/2000/svg">
<g clip-path="url(#clip0_60_228)">
<path d="M3.75046 10.8775C8.27904 10.8775 10.7555 7.12574 10.7555 3.8725C10.7555 3.76594 10.7533 3.65983 10.7485 3.55427C11.2291 3.20673 11.647 2.77304 11.9766 2.27939C11.5355 2.4755 11.0607 2.60742 10.5627 2.66703C11.071 2.36215 11.4613 1.88004 11.6453 1.30527C11.1696 1.58725 10.6428 1.79215 10.082 1.90283C9.63274 1.42429 8.99306 1.125 8.28481 1.125C6.92525 1.125 5.82267 2.22757 5.82267 3.58667C5.82267 3.77994 5.84428 3.96781 5.88649 4.14808C3.84028 4.04508 2.02579 3.06546 0.811617 1.57572C0.600221 1.93955 0.478272 2.36225 0.478272 2.81324C0.478272 3.66733 0.912966 4.42145 1.57389 4.86256C1.16995 4.85011 0.790559 4.73923 0.458863 4.55466C0.458497 4.56501 0.458497 4.57508 0.458497 4.58607C0.458497 5.77845 1.3071 6.774 2.43375 6.99958C2.22684 7.05589 2.00913 7.08619 1.78455 7.08619C1.62616 7.08619 1.4718 7.07063 1.32175 7.04179C1.63523 8.02003 2.54416 8.73186 3.62174 8.75182C2.77909 9.41228 1.71753 9.80568 0.563874 9.80568C0.365388 9.80568 0.169281 9.79433 -0.0234375 9.77162C1.06613 10.47 2.36005 10.8776 3.75056 10.8776" fill="#800000"/>
</g>
<defs>
<clipPath id="clip0_60_228">
<rect width="12" height="12" fill="white"/>
</clipPath>
</defs>
</svg>
