<svg width="64" height="55" viewBox="0 0 64 55" fill="none" xmlns="http://www.w3.org/2000/svg">
<path d="M64 5.39216C57.371 10.0654 52.4896 14.5588 49.3559 18.8725C46.2222 23.0665 44.6554 27.1405 44.6554 31.0948C44.6554 32.293 45.1375 32.8922 46.1017 32.8922L50.0791 32.5327C53.8154 32.5327 56.8286 33.5512 59.1186 35.5882C61.4087 37.5054 62.5537 40.1416 62.5537 43.4967C62.5537 46.8519 61.3484 49.6078 58.9379 51.7647C56.6478 53.9216 53.7552 55 50.2599 55C45.6798 55 41.9435 53.3824 39.0508 50.1471C36.1582 46.7919 34.7119 42.2386 34.7119 36.4869C34.7119 29.7767 36.7006 23.4858 40.678 17.6144C44.7759 11.6231 51.0433 5.75163 59.4802 0L64 5.39216ZM29.2881 5.39216C23.5028 8.98693 18.8023 13.1808 15.1864 17.9739C11.5706 22.7669 9.76271 27.1405 9.76271 31.0948C9.76271 32.293 10.2448 32.8922 11.209 32.8922L15.0056 32.5327C18.8625 32.5327 21.936 33.5512 24.226 35.5882C26.516 37.5054 27.661 40.1416 27.661 43.4967C27.661 46.8519 26.4557 49.6078 24.0452 51.7647C21.7552 53.9216 18.8625 55 15.3672 55C10.7872 55 7.05085 53.3824 4.15819 50.1471C1.38606 46.7919 0 42.2386 0 36.4869C0 29.7767 1.9887 23.4858 5.9661 17.6144C9.9435 11.6231 16.1507 5.75163 24.5876 0L29.2881 5.39216Z" fill="white" fill-opacity="0.2"/>
</svg>
